<svg width="30" height="32" viewBox="0 0 30 32" fill="none" xmlns="http://www.w3.org/2000/svg">
<path d="M2.62791 6.9375L1.65116 7.875L1 8.8125V9.4375V10.375L1.32558 11.625L2.62791 12.5625L3.60465 13.1875H4.90698H5.88372L6.53488 12.875V25.375V27.5625L7.18605 28.8125L8.16279 30.0625L9.46512 30.6875H11.093L12.7209 29.75L13.6977 28.8125L14.0233 27.25V23.8125H20.2093V25.0625V27.25L20.5349 28.8125L21.186 29.75L22.1628 30.6875L23.4651 31H24.4419L25.4186 30.6875L26.0698 30.375L26.7209 29.75L27.0465 28.8125L27.3721 27.25V19.125L27.6977 18.5L28.3778 18.7551H28.6889L29 18.449V18.1429V17.8367L28.6744 17.2054L27.3721 15.0625L26.3953 13.8125L25.093 13.1875L23.7907 12.875L20.2093 12.5625H14.0233V5.375L12.7209 3.1875L11.4186 1.3125L10.7674 1L10.4419 1.3125V3.8125L9.46512 2.5625L9.13954 1.625L8.48837 1.3125H8.16279L7.83721 1.625V4.75L4.5814 6L2.62791 6.9375Z" fill="#FFAC04" stroke="black"/>
</svg>
