<svg width="38" height="42" viewBox="0 0 38 42" fill="none" xmlns="http://www.w3.org/2000/svg">
<path d="M34.907 8.91691L36.1628 10.1669L37 11.4169V12.2502V13.5002L36.5814 15.1669L34.907 16.4169L33.6512 17.2502H31.9767H30.7209L29.8837 16.8336V33.5002V36.4169L29.0465 38.0836L27.7907 39.7502L26.1163 40.5836H24.0233L21.9302 39.3336L20.6744 38.0836L20.2558 36.0002V31.4169H12.3023V33.0836V36.0002L11.8837 38.0836L11.0465 39.3336L9.7907 40.5836L8.11628 41.0002H6.86046L5.60465 40.5836L4.76744 40.1669L3.93023 39.3336L3.51163 38.0836L3.09302 36.0002V25.1669L2.67442 24.3336L1.8 24.6737H1.4L1 24.2655V23.8574V23.4492L1.4186 22.6074L3.09302 19.7502L4.34884 18.0836L6.02325 17.2502L7.69768 16.8336L12.3023 16.4169H20.2558V6.83358L21.9302 3.91691L23.6047 1.41691L24.4419 1.00024L24.8605 1.41691V4.75024L26.1163 3.08358L26.5349 1.83358L27.3721 1.41691H27.7907L28.2093 1.83358V6.00024L32.3953 7.66691L34.907 8.91691Z" fill="#FFAC04" stroke="black"/>
</svg>
