<svg width="18" height="21" viewBox="0 0 18 21" fill="none" xmlns="http://www.w3.org/2000/svg">
<path d="M1.04651 4.15625L0.418605 4.8125L0 5.46875V5.90625V6.5625L0.209302 7.4375L1.04651 8.09375L1.67442 8.53125H2.51163H3.13953L3.55814 8.3125V17.0625V18.5938L3.97674 19.4688L4.60465 20.3438L5.44186 20.7813H6.48837L7.53488 20.125L8.16279 19.4688L8.37209 18.375V15.9688H12.3488V16.8438V18.375L12.5581 19.4688L12.9767 20.125L13.6047 20.7813L14.4419 21H15.0698L15.6977 20.7813L16.1163 20.5625L16.5349 20.125L16.7442 19.4688L16.9535 18.375V12.6875L17.1628 12.25L17.6 12.4286H17.8L18 12.2143V12V11.7857L17.7907 11.3438L16.9535 9.84375L16.3256 8.96875L15.4884 8.53125L14.6512 8.3125L12.3488 8.09375H8.37209V3.0625L7.53488 1.53125L6.69767 0.21875L6.27907 0L6.06977 0.21875V1.96875L5.44186 1.09375L5.23256 0.4375L4.81395 0.21875H4.60465L4.39535 0.4375V2.625L2.30233 3.5L1.04651 4.15625Z" fill="#FFAC04"/>
</svg>
