<svg width="50" height="50" viewBox="0 0 50 50" fill="none" xmlns="http://www.w3.org/2000/svg">
<circle cx="25" cy="25" r="24.5" fill="#D9D9D9" fill-opacity="0.96" stroke="white"/>
<path d="M12.8852 15.4362L11.9041 16.3932L11.25 17.3503V17.9883V18.9453L11.577 20.2214L12.8852 21.1784L13.8663 21.8164H15.1744H16.1555L16.8096 21.4974V34.2578V36.4909L17.4637 37.7669L18.4448 39.043L19.7529 39.681H21.3881L23.0233 38.724L24.0044 37.7669L24.3314 36.1719V32.6628H30.5451V33.9388V36.1719L30.8721 37.7669L31.5262 38.724L32.5073 39.681L33.8154 40H34.7965L35.7776 39.681L36.4317 39.362L37.0858 38.724L37.4128 37.7669L37.7398 36.1719V27.8776L38.0669 27.2396L38.75 27.5H39.0625L39.375 27.1875V26.875V26.5625L39.048 25.918L37.7398 23.7305L36.7587 22.4544L35.4506 21.8164L34.1424 21.4974L30.5451 21.1784H24.3314V13.8411L23.0233 11.6081L21.7151 9.69401L21.061 9.375L20.734 9.69401V12.2461L19.7529 10.9701L19.4259 10.013L18.7718 9.69401H18.4448L18.1177 10.013V13.2031L14.8474 14.4792L12.8852 15.4362Z" fill="white"/>
</svg>
